<?xml version="1.0" encoding="utf-8"?>
<!-- Generator: Adobe Illustrator 27.0.0, SVG Export Plug-In . SVG Version: 6.00 Build 0)  -->
<svg version="1.1" id="Layer_1" xmlns="http://www.w3.org/2000/svg" xmlns:xlink="http://www.w3.org/1999/xlink" x="0px" y="0px"
	 viewBox="0 0 236.58 63.83" style="enable-background:new 0 0 236.58 63.83;" xml:space="preserve">
<style type="text/css">
	.st0{fill-rule:evenodd;clip-rule:evenodd;fill:#00A3B0;}
	.st1{fill-rule:evenodd;clip-rule:evenodd;fill:#616161;}
	.st2{fill:#00A3B0;}
	.st3{fill:#616161;}
	.st4{fill-rule:evenodd;clip-rule:evenodd;fill:#B4CDD6;}
	.st5{fill:#B4CDD6;}
</style>
<g>
	<g>
		<path class="st0" d="M7.5,192.93c-5.91-6.18-5.78-15.87,0.27-21.85l0.07-0.07H7.9v-0.07c0.13-0.13,0.27-0.2,0.4-0.33v-0.07h0.07
			v-0.07h0.07l0.07-0.07c2.19-1.93,4.85-3.12,7.51-3.59v7.51c-0.53,0.2-1.13,0.46-1.66,0.8v0.07h-0.07v0.07h-0.07h-0.07v0.07h-0.07
			l-0.07,0.07c-0.33,0.2-0.6,0.47-0.86,0.66v0.07h-0.07v0.07h-0.07l-0.07,0.07v0.07h-0.07c-0.93,0.93-1.59,2.06-1.99,3.25
			c-0.86,2.66-0.33,5.71,1.59,7.9c0.07,0.07,0.13,0.13,0.13,0.2c0.07,0.07,0.13,0.07,0.2,0.13c0,0.07,0.07,0.13,0.13,0.13
			c3.12,3.12,8.24,3.19,11.42,0.07c0.27-0.2,0.53-0.47,0.73-0.73c1.66-1.99,1.73-3.65,1.73-6.11v-19.79
			c0.47-3.65,4.19-6.18,7.51-5.98v0.07l0.07,25.31c0,4.78-1.39,9.17-4.92,12.55c-2.79,2.72-6.38,4.12-9.96,4.32h-0.4
			C14.94,197.78,10.69,196.18,7.5,192.93"/>
		<path class="st1" d="M44.7,151.35c-3.12-3.32-7.44-4.91-11.62-4.78h-0.4c-3.59,0.2-7.11,1.66-9.96,4.32
			c-3.45,3.39-4.85,7.77-4.85,12.55v25.24v0.07c3.25,0.27,7.11-2.46,7.5-5.91v-19.79c0-2.46,0.13-4.12,1.73-6.11
			c0.2-0.27,0.46-0.47,0.73-0.73c3.19-3.12,8.3-3.06,11.42,0.07h0.07l0.13,0.13c0,0.07,0.07,0.07,0.13,0.13
			c0.07,0.07,0.07,0.13,0.13,0.2c1.93,2.19,2.46,5.25,1.59,7.9c-0.4,1.2-1.06,2.32-1.99,3.25v0.07h-0.07l-0.07,0.07v0.07h-0.07
			l-0.07,0.07c-0.27,0.27-0.53,0.46-0.8,0.66l-0.13,0.07h-0.07v0.07h-0.07v0.07h-0.07h-0.07v0.07c-0.53,0.33-1.06,0.6-1.66,0.8v7.51
			c2.72-0.46,5.32-1.66,7.51-3.59h0.07v-0.07h0.07v-0.07h0.07v-0.07c0.13-0.07,0.27-0.2,0.4-0.33l0.07-0.07l0.07-0.07
			C50.47,167.16,50.61,157.46,44.7,151.35 M40.31,174.53c3.92-2.59,6.58-7.04,6.58-12.09c0-7.9-6.44-14.35-14.35-14.35
			c-2.52,0-4.91,0.66-6.97,1.86c2.19-1.46,4.85-2.26,7.7-2.26c7.9,0,14.35,6.38,14.35,14.28C47.62,167.36,44.63,172.07,40.31,174.53
			"/>
	</g>
	<g>
		<path class="st2" d="M64.43,182.77c0,1.5-0.75,2.25-2.25,2.25H59.9v-17.23c0.24-5.38,3.03-8.04,8.44-8.04
			c5.59,0,8.38,3.03,8.38,9.09c0,6.13-2.38,9.3-7.19,9.47c-2.25,0-3.95-0.92-5.11-2.79V182.77z M68.28,174.26
			c2.45,0,3.71-1.74,3.81-5.21c0-3.64-1.29-5.45-3.88-5.45c-2.59,0-3.81,1.8-3.78,5.45C64.57,172.52,65.83,174.26,68.28,174.26"/>
		<path class="st2" d="M95.08,169.05c0,6.2-2.76,9.33-8.21,9.33c-5.45,0-8.17-3.13-8.17-9.33c0-6.27,2.72-9.36,8.17-9.36
			C92.32,159.69,95.08,162.79,95.08,169.05 M83.3,169.05c0.03,3.51,1.23,5.28,3.54,5.28c2.31,0,3.47-1.84,3.51-5.41
			c0-3.51-1.16-5.24-3.47-5.24C84.49,163.67,83.3,165.48,83.3,169.05"/>
		<path class="st2" d="M105.13,174.7c1.91,0,2.86-0.54,2.86-1.7c0-0.92-1.57-1.67-4.66-2.21c-3.98-0.71-6.03-2.49-6.06-5.31
			c0-3.88,3.07-5.72,7.18-5.79c2.32,0,4.15,0.51,5.52,1.53c1.33,1.05,2.04,2.52,2.14,4.39h-2.86c-1.06-0.03-1.74-0.41-2.01-1.12
			c-0.31-0.78-1.23-1.22-2.72-1.22c-1.77,0-2.66,0.48-2.66,1.4c0,0.92,1.16,1.63,3.51,2.08c3.06,0.61,5.07,1.4,6.06,2.32
			c0.85,0.88,1.26,1.97,1.26,3.2c0,4.43-3.47,6.06-8.24,6.06c-2.52,0-4.43-0.54-5.65-1.6c-1.36-1.02-2.04-2.59-2.04-4.67h4.63
			C101.48,174.02,102.91,174.7,105.13,174.7"/>
		<path class="st2" d="M123.04,163.74c-2.69,0-3.85,2.25-3.85,5.01v9.23h-4.53v-23.15h2.28c1.5,0,2.25,0.78,2.25,2.28v5.38
			c2.32-2.66,5.14-3.4,8.51-2.21c2.52,0.92,3.71,3.34,3.58,7.25v10.45h-4.5v-9.23C126.78,165.71,125.63,163.74,123.04,163.74"/>
		<path class="st3" d="M137.5,162.14c0-1.12-0.44-1.55-1.55-1.55h-1.72v19.4c0,1.15-0.64,1.82-1.75,1.82h-0.23v2.73h0.16
			c3.67,0,5.1-1.06,5.1-3.77V162.14z"/>
		<path class="st3" d="M137.5,157.73v-0.7c0.01-0.57-0.1-0.98-0.34-1.22c-0.24-0.24-0.65-0.37-1.22-0.37h-1.72v2.29H137.5z"/>
		<path class="st3" d="M153.16,170.79v-10.2h-1.69c-0.57,0-0.97,0.12-1.21,0.37c-0.24,0.25-0.36,0.66-0.34,1.24v9.51
			c0,2.34-1.31,3.62-3.69,3.62c-2.38,0-3.69-1.29-3.69-3.62v-11.12h-3.28v10.2c0,2.8,0.67,4.59,2.06,5.46
			c1.48,0.97,3.04,1.44,4.77,1.44c1.8,0,3.48-0.44,5-1.31C152.46,175.53,153.16,173.65,153.16,170.79"/>
		<path class="st3" d="M166.78,177.35h1.67v-9.96c0.02-2.4-0.55-4.19-1.7-5.34c-1.14-1.15-2.92-1.73-5.3-1.73
			c-4.78,0-7.1,2.31-7.1,7.07v9.96h3.34v-10.88c0.04-2.21,1.35-3.42,3.69-3.42c2.95,0,3.67,1.84,3.76,3.38l0,0.03v9.26
			C165.14,176.63,165.42,177.25,166.78,177.35"/>
		<path class="st3" d="M177.25,160.31c-5.17,0.1-7.68,2.95-7.68,8.74c0.13,5.85,2.66,8.7,7.75,8.7h0.01
			c3.42,0.08,5.86-1.61,6.83-4.67h-2.59c-0.42,0-0.76,0.14-1.08,0.45c-0.86,0.97-1.96,1.49-3.18,1.49c-1.2,0.01-2.17-0.34-2.91-1.06
			c-1-0.98-1.5-2.63-1.5-4.91c0-4.97,2.29-6.01,4.2-6.01c1.49,0,2.63,0.65,3.32,1.87h3.76C183.3,161.82,181.02,160.31,177.25,160.31
			"/>
		<path class="st3" d="M191.95,174.96h-0.77c-1.22,0-1.95-0.67-1.95-1.78v-10.6h1.1c0.92,0,1.62-0.7,1.62-1.62v-0.36h-2.72v-3.49
			c0-0.87-0.74-1.66-1.55-1.66h-1.72v19.06c-0.04,2.13,0.95,2.51,1.92,2.61c1.4,0.14,2.77,0.17,4.08,0.08V174.96z"/>
		<path class="st3" d="M193.74,160.59v16.76h3.28v-15.21c0-1.12-0.43-1.55-1.55-1.55H193.74z"/>
		<path class="st3" d="M197.02,157.73v-0.7c0.01-0.57-0.1-0.98-0.34-1.22c-0.24-0.24-0.65-0.37-1.22-0.37h-1.72v2.29H197.02z"/>
		<path class="st3" d="M206.19,160.31c-5.08,0-7.55,2.86-7.55,8.74c0,5.86,2.47,8.7,7.55,8.7c5.1,0,7.58-2.85,7.58-8.7
			C213.77,163.17,211.29,160.31,206.19,160.31 M206.16,174.96c-1.88,0-4.12-1.02-4.17-5.9v-0.01c0-4.96,2.29-6.01,4.2-6.01
			c3.39,0,4.1,3.19,4.1,5.87C210.25,173.91,208.02,174.96,206.16,174.96"/>
		<path class="st3" d="M227.6,177.35h1.67v-9.96c0.02-2.4-0.56-4.19-1.7-5.34c-1.14-1.15-2.92-1.73-5.31-1.73
			c-4.78,0-7.1,2.31-7.1,7.07v9.96h3.35v-10.88c0.04-2.21,1.35-3.42,3.69-3.42c2.95,0,3.67,1.84,3.76,3.38l0,0.03v9.26
			C225.96,176.63,226.24,177.25,227.6,177.35"/>
	</g>
</g>
<g>
	<g>
		<path class="st0" d="M7.5,53.83c-5.91-6.18-5.78-15.87,0.27-21.85l0.07-0.07H7.9v-0.07c0.13-0.13,0.27-0.2,0.4-0.33v-0.07h0.07
			v-0.07h0.07l0.07-0.07c2.19-1.93,4.85-3.12,7.51-3.59v7.51c-0.53,0.2-1.13,0.46-1.66,0.8v0.07h-0.07v0.07h-0.07h-0.07v0.07h-0.07
			l-0.07,0.07c-0.33,0.2-0.6,0.47-0.86,0.66v0.07h-0.07v0.07h-0.07l-0.07,0.07v0.07h-0.07c-0.93,0.93-1.59,2.06-1.99,3.25
			c-0.86,2.66-0.33,5.71,1.59,7.9c0.07,0.07,0.13,0.13,0.13,0.2c0.07,0.07,0.13,0.07,0.2,0.13c0,0.07,0.07,0.13,0.13,0.13
			c3.12,3.12,8.24,3.19,11.42,0.07c0.27-0.2,0.53-0.47,0.73-0.73c1.66-1.99,1.73-3.65,1.73-6.11V22.28
			c0.47-3.65,4.19-6.18,7.51-5.98v0.07l0.07,25.31c0,4.78-1.39,9.17-4.92,12.55c-2.79,2.72-6.38,4.12-9.96,4.32h-0.4
			C14.94,58.68,10.69,57.08,7.5,53.83"/>
		<path class="st4" d="M44.7,12.25c-3.12-3.32-7.44-4.91-11.62-4.78h-0.4c-3.59,0.2-7.11,1.66-9.96,4.32
			c-3.45,3.39-4.85,7.77-4.85,12.55v25.24v0.07c3.25,0.27,7.11-2.46,7.5-5.91V23.94c0-2.46,0.13-4.12,1.73-6.11
			c0.2-0.27,0.46-0.47,0.73-0.73c3.19-3.12,8.3-3.06,11.42,0.07h0.07l0.13,0.13c0,0.07,0.07,0.07,0.13,0.13
			c0.07,0.07,0.07,0.13,0.13,0.2c1.93,2.19,2.46,5.25,1.59,7.9c-0.4,1.2-1.06,2.32-1.99,3.25v0.07h-0.07l-0.07,0.07v0.07h-0.07
			l-0.07,0.07c-0.27,0.27-0.53,0.46-0.8,0.66l-0.13,0.07h-0.07v0.07h-0.07v0.07h-0.07h-0.07v0.07c-0.53,0.33-1.06,0.6-1.66,0.8v7.51
			c2.72-0.46,5.32-1.66,7.51-3.59h0.07v-0.07h0.07v-0.07h0.07V34.5c0.13-0.07,0.27-0.2,0.4-0.33l0.07-0.07l0.07-0.07
			C50.47,28.06,50.61,18.36,44.7,12.25 M40.31,35.43c3.92-2.59,6.58-7.04,6.58-12.09C46.89,15.44,40.45,9,32.54,9
			c-2.52,0-4.91,0.66-6.97,1.86c2.19-1.46,4.85-2.26,7.7-2.26c7.9,0,14.35,6.38,14.35,14.28C47.62,28.26,44.63,32.97,40.31,35.43"/>
	</g>
	<g>
		<path class="st2" d="M64.43,43.68c0,1.5-0.75,2.25-2.25,2.25H59.9V28.69c0.24-5.38,3.03-8.04,8.44-8.04
			c5.59,0,8.38,3.03,8.38,9.09c0,6.13-2.38,9.3-7.19,9.47c-2.25,0-3.95-0.92-5.11-2.79V43.68z M68.28,35.16
			c2.45,0,3.71-1.74,3.81-5.21c0-3.64-1.29-5.45-3.88-5.45c-2.59,0-3.81,1.8-3.78,5.45C64.57,33.43,65.83,35.16,68.28,35.16"/>
		<path class="st2" d="M95.08,29.95c0,6.2-2.76,9.33-8.21,9.33c-5.45,0-8.17-3.13-8.17-9.33c0-6.27,2.72-9.36,8.17-9.36
			C92.32,20.59,95.08,23.69,95.08,29.95 M83.3,29.95c0.03,3.51,1.23,5.28,3.54,5.28c2.31,0,3.47-1.84,3.51-5.41
			c0-3.51-1.16-5.24-3.47-5.24C84.49,24.57,83.3,26.38,83.3,29.95"/>
		<path class="st2" d="M105.13,35.61c1.91,0,2.86-0.54,2.86-1.7c0-0.92-1.57-1.67-4.66-2.21c-3.98-0.72-6.03-2.49-6.06-5.31
			c0-3.88,3.07-5.72,7.18-5.79c2.32,0,4.15,0.51,5.52,1.53c1.33,1.06,2.04,2.52,2.14,4.39h-2.86c-1.06-0.03-1.74-0.41-2.01-1.12
			c-0.31-0.78-1.23-1.22-2.72-1.22c-1.77,0-2.66,0.48-2.66,1.4c0,0.92,1.16,1.63,3.51,2.08c3.06,0.61,5.07,1.4,6.06,2.32
			c0.85,0.88,1.26,1.97,1.26,3.2c0,4.43-3.47,6.06-8.24,6.06c-2.52,0-4.43-0.54-5.65-1.6c-1.36-1.02-2.04-2.59-2.04-4.67h4.63
			C101.48,34.93,102.91,35.61,105.13,35.61"/>
		<path class="st2" d="M123.04,24.64c-2.69,0-3.85,2.25-3.85,5.01v9.23h-4.53V15.72h2.28c1.5,0,2.25,0.78,2.25,2.28v5.38
			c2.32-2.66,5.14-3.4,8.51-2.21c2.52,0.92,3.71,3.34,3.58,7.25v10.45h-4.5v-9.23C126.78,26.62,125.63,24.64,123.04,24.64"/>
		<path class="st5" d="M137.5,23.04c0-1.12-0.44-1.55-1.55-1.55h-1.72v19.4c0,1.15-0.64,1.82-1.75,1.82h-0.23v2.73h0.16
			c3.67,0,5.1-1.06,5.1-3.77V23.04z"/>
		<path class="st5" d="M137.5,18.64v-0.7c0.01-0.57-0.1-0.98-0.34-1.22c-0.24-0.24-0.65-0.37-1.22-0.37h-1.72v2.29H137.5z"/>
		<path class="st5" d="M153.16,31.69v-10.2h-1.69c-0.57,0-0.97,0.12-1.21,0.37c-0.24,0.25-0.36,0.66-0.34,1.24v9.52
			c0,2.34-1.31,3.62-3.69,3.62c-2.38,0-3.69-1.29-3.69-3.62V21.49h-3.28v10.2c0,2.8,0.67,4.59,2.06,5.46
			c1.48,0.97,3.04,1.44,4.77,1.44c1.8,0,3.48-0.44,5-1.31C152.46,36.43,153.16,34.55,153.16,31.69"/>
		<path class="st5" d="M166.78,38.25h1.67v-9.96c0.02-2.39-0.55-4.19-1.7-5.34c-1.14-1.15-2.92-1.73-5.3-1.73
			c-4.78,0-7.1,2.31-7.1,7.07v9.96h3.34V27.37c0.04-2.21,1.35-3.42,3.69-3.42c2.95,0,3.67,1.84,3.76,3.38l0,0.03v9.26
			C165.14,37.53,165.42,38.15,166.78,38.25"/>
		<path class="st5" d="M177.25,21.22c-5.17,0.1-7.68,2.95-7.68,8.74c0.13,5.85,2.66,8.7,7.75,8.7h0.01
			c3.42,0.08,5.86-1.61,6.83-4.67h-2.59c-0.42,0-0.76,0.14-1.08,0.45c-0.86,0.97-1.96,1.49-3.18,1.49c-1.2,0.01-2.17-0.34-2.91-1.06
			c-1-0.98-1.5-2.63-1.5-4.91c0-4.97,2.29-6.01,4.2-6.01c1.49,0,2.63,0.65,3.32,1.87h3.76C183.3,22.72,181.02,21.22,177.25,21.22"/>
		<path class="st5" d="M191.95,35.86h-0.77c-1.22,0-1.95-0.67-1.95-1.78v-10.6h1.1c0.92,0,1.62-0.7,1.62-1.62v-0.36h-2.72V18
			c0-0.87-0.74-1.66-1.55-1.66h-1.72V35.4c-0.04,2.13,0.95,2.51,1.92,2.61c1.4,0.14,2.77,0.17,4.08,0.08V35.86z"/>
		<path class="st5" d="M193.74,21.49v16.76h3.28V23.04c0-1.12-0.43-1.55-1.55-1.55H193.74z"/>
		<path class="st5" d="M197.02,18.64v-0.7c0.01-0.57-0.1-0.98-0.34-1.22c-0.24-0.24-0.65-0.37-1.22-0.37h-1.72v2.29H197.02z"/>
		<path class="st5" d="M206.19,21.22c-5.08,0-7.55,2.86-7.55,8.74c0,5.86,2.47,8.7,7.55,8.7c5.1,0,7.58-2.85,7.58-8.7
			C213.77,24.07,211.29,21.22,206.19,21.22 M206.16,35.86c-1.88,0-4.12-1.02-4.17-5.9v-0.01c0-4.96,2.29-6.01,4.2-6.01
			c3.39,0,4.1,3.19,4.1,5.87C210.25,34.81,208.02,35.86,206.16,35.86"/>
		<path class="st5" d="M227.6,38.25h1.67v-9.96c0.02-2.39-0.56-4.19-1.7-5.34c-1.14-1.15-2.92-1.73-5.31-1.73
			c-4.78,0-7.1,2.31-7.1,7.07v9.96h3.35V27.37c0.04-2.21,1.35-3.42,3.69-3.42c2.95,0,3.67,1.84,3.76,3.38l0,0.03v9.26
			C225.96,37.53,226.24,38.15,227.6,38.25"/>
	</g>
</g>
</svg>
