<?xml version="1.0" encoding="utf-8"?>
<!-- Generator: Adobe Illustrator 27.0.0, SVG Export Plug-In . SVG Version: 6.00 Build 0)  -->
<svg version="1.1" id="Layer_1" xmlns="http://www.w3.org/2000/svg" xmlns:xlink="http://www.w3.org/1999/xlink" x="0px" y="0px"
	 viewBox="0 0 226.12 51.09" style="enable-background:new 0 0 226.12 51.09;" xml:space="preserve">
<style type="text/css">
	.st0{fill-rule:evenodd;clip-rule:evenodd;fill:#00A3B0;}
	.st1{fill-rule:evenodd;clip-rule:evenodd;fill:#616161;}
	.st2{fill:#00A3B0;}
	.st3{fill:#616161;}
	.st4{fill-rule:evenodd;clip-rule:evenodd;fill:#B4CDD6;}
	.st5{fill:#B4CDD6;}
</style>
<g>
	<g>
		<path class="st0" d="M4.35,46.37c-5.91-6.18-5.78-15.87,0.27-21.85l0.07-0.07h0.07v-0.07c0.13-0.13,0.27-0.2,0.4-0.33v-0.07h0.07
			v-0.07h0.07l0.07-0.07c2.19-1.93,4.85-3.12,7.51-3.59v7.51c-0.53,0.2-1.13,0.46-1.66,0.8v0.07h-0.07v0.07h-0.07h-0.07v0.07h-0.07
			l-0.07,0.07c-0.33,0.2-0.6,0.47-0.86,0.66v0.07H9.93v0.07H9.87L9.8,29.7v0.07H9.73c-0.93,0.93-1.59,2.06-1.99,3.25
			c-0.86,2.66-0.33,5.71,1.59,7.9c0.07,0.07,0.13,0.13,0.13,0.2c0.07,0.07,0.13,0.07,0.2,0.13c0,0.07,0.07,0.13,0.13,0.13
			c3.12,3.12,8.24,3.19,11.42,0.07c0.27-0.2,0.53-0.47,0.73-0.73c1.66-1.99,1.73-3.65,1.73-6.11V14.82
			c0.47-3.65,4.19-6.18,7.51-5.98v0.07l0.07,25.31c0,4.78-1.39,9.17-4.92,12.55c-2.79,2.72-6.38,4.12-9.96,4.32h-0.4
			C11.79,51.22,7.54,49.62,4.35,46.37"/>
		<path class="st1" d="M41.55,4.79c-3.12-3.32-7.44-4.91-11.62-4.78h-0.4c-3.59,0.2-7.11,1.66-9.96,4.32
			c-3.45,3.39-4.85,7.77-4.85,12.55v25.24v0.07c3.25,0.27,7.11-2.46,7.5-5.91V16.48c0-2.46,0.13-4.12,1.73-6.11
			c0.2-0.27,0.46-0.47,0.73-0.73c3.19-3.12,8.3-3.06,11.42,0.07h0.07l0.13,0.13c0,0.07,0.07,0.07,0.13,0.13
			c0.07,0.07,0.07,0.13,0.13,0.2c1.93,2.19,2.46,5.25,1.59,7.9c-0.4,1.2-1.06,2.32-1.99,3.25v0.07H36.1l-0.07,0.07v0.07h-0.07
			l-0.07,0.07c-0.27,0.27-0.53,0.46-0.8,0.66l-0.13,0.07H34.9v0.07h-0.07v0.07h-0.07h-0.07v0.07c-0.53,0.33-1.06,0.6-1.66,0.8v7.51
			c2.72-0.46,5.32-1.66,7.51-3.59h0.07v-0.07h0.07v-0.07h0.07v-0.07c0.13-0.07,0.27-0.2,0.4-0.33l0.07-0.07l0.07-0.07
			C47.33,20.6,47.46,10.9,41.55,4.79 M37.16,27.97c3.92-2.59,6.58-7.04,6.58-12.09c0-7.9-6.44-14.35-14.35-14.35
			c-2.52,0-4.91,0.66-6.97,1.86c2.19-1.46,4.85-2.26,7.7-2.26c7.9,0,14.35,6.38,14.35,14.28C44.47,20.8,41.48,25.51,37.16,27.97"/>
	</g>
	<g>
		<path class="st2" d="M61.28,36.22c0,1.5-0.75,2.25-2.25,2.25h-2.28V21.23c0.24-5.38,3.03-8.04,8.45-8.04
			c5.58,0,8.38,3.03,8.38,9.09c0,6.13-2.38,9.3-7.18,9.47c-2.25,0-3.95-0.92-5.11-2.79V36.22z M65.13,27.7
			c2.45,0,3.71-1.74,3.81-5.21c0-3.64-1.29-5.45-3.88-5.45c-2.59,0-3.81,1.8-3.78,5.45C61.42,25.97,62.68,27.7,65.13,27.7"/>
		<path class="st2" d="M91.93,22.49c0,6.2-2.76,9.33-8.21,9.33c-5.45,0-8.17-3.13-8.17-9.33c0-6.27,2.72-9.36,8.17-9.36
			C89.17,13.13,91.93,16.23,91.93,22.49 M80.15,22.49c0.03,3.51,1.23,5.28,3.54,5.28c2.32,0,3.47-1.84,3.51-5.41
			c0-3.51-1.16-5.24-3.47-5.24C81.34,17.11,80.15,18.92,80.15,22.49"/>
		<path class="st2" d="M101.98,28.15c1.91,0,2.86-0.54,2.86-1.7c0-0.92-1.57-1.67-4.66-2.21c-3.98-0.72-6.03-2.49-6.06-5.31
			c0-3.88,3.07-5.72,7.18-5.79c2.32,0,4.15,0.51,5.52,1.53c1.33,1.06,2.04,2.52,2.14,4.39h-2.86c-1.06-0.03-1.74-0.41-2.01-1.12
			c-0.31-0.78-1.23-1.22-2.72-1.22c-1.77,0-2.66,0.48-2.66,1.4c0,0.92,1.16,1.63,3.51,2.08c3.06,0.61,5.07,1.4,6.06,2.32
			c0.85,0.88,1.26,1.97,1.26,3.2c0,4.43-3.47,6.06-8.24,6.06c-2.52,0-4.43-0.54-5.65-1.6c-1.36-1.02-2.04-2.59-2.04-4.67h4.63
			C98.33,27.46,99.76,28.15,101.98,28.15"/>
		<path class="st2" d="M119.89,17.18c-2.69,0-3.85,2.25-3.85,5.01v9.23h-4.53V8.26h2.28c1.5,0,2.25,0.78,2.25,2.28v5.38
			c2.32-2.66,5.14-3.4,8.51-2.21c2.52,0.92,3.71,3.34,3.57,7.25v10.45h-4.49v-9.23C123.63,19.16,122.48,17.18,119.89,17.18"/>
		<path class="st3" d="M134.35,15.58c0-1.12-0.44-1.55-1.55-1.55h-1.72v19.4c0,1.15-0.64,1.82-1.75,1.82h-0.23v2.73h0.16
			c3.67,0,5.1-1.06,5.1-3.77V15.58z"/>
		<path class="st3" d="M134.35,11.18v-0.7c0.01-0.57-0.1-0.98-0.34-1.22c-0.24-0.24-0.65-0.37-1.22-0.37h-1.72v2.29H134.35z"/>
		<path class="st3" d="M150.01,24.23v-10.2h-1.69c-0.57,0-0.97,0.12-1.21,0.37c-0.24,0.25-0.36,0.66-0.34,1.24v9.52
			c0,2.34-1.31,3.62-3.69,3.62c-2.38,0-3.69-1.29-3.69-3.62V14.03h-3.28v10.2c0,2.8,0.67,4.59,2.06,5.46
			c1.48,0.97,3.04,1.44,4.77,1.44c1.8,0,3.48-0.44,5-1.31C149.31,28.97,150.01,27.09,150.01,24.23"/>
		<path class="st3" d="M163.63,30.79h1.67v-9.96c0.02-2.39-0.55-4.19-1.7-5.34c-1.14-1.15-2.92-1.73-5.3-1.73
			c-4.78,0-7.1,2.31-7.1,7.07v9.96h3.34V19.91c0.04-2.21,1.35-3.42,3.69-3.42c2.95,0,3.67,1.84,3.76,3.38l0,0.03v9.26
			C161.99,30.07,162.27,30.69,163.63,30.79"/>
		<path class="st3" d="M174.1,13.76c-5.17,0.1-7.68,2.95-7.68,8.74c0.13,5.85,2.66,8.7,7.75,8.7h0.01c3.42,0.08,5.86-1.61,6.83-4.67
			h-2.59c-0.42,0-0.76,0.14-1.08,0.45c-0.86,0.97-1.96,1.49-3.18,1.49c-1.2,0.01-2.17-0.34-2.91-1.06c-1-0.98-1.5-2.63-1.5-4.91
			c0-4.97,2.29-6.01,4.2-6.01c1.49,0,2.63,0.65,3.32,1.87h3.76C180.15,15.26,177.88,13.76,174.1,13.76"/>
		<path class="st3" d="M188.8,28.4h-0.77c-1.22,0-1.95-0.67-1.95-1.78v-10.6h1.1c0.92,0,1.62-0.7,1.62-1.62v-0.36h-2.72v-3.49
			c0-0.87-0.74-1.66-1.55-1.66h-1.72v19.06c-0.04,2.13,0.95,2.51,1.92,2.61c1.4,0.14,2.77,0.17,4.08,0.08V28.4z"/>
		<path class="st3" d="M190.59,14.03v16.76h3.28V15.58c0-1.12-0.43-1.55-1.55-1.55H190.59z"/>
		<path class="st3" d="M193.87,11.18v-0.7c0.01-0.57-0.1-0.98-0.34-1.22c-0.24-0.24-0.65-0.37-1.22-0.37h-1.72v2.29H193.87z"/>
		<path class="st3" d="M203.04,13.75c-5.08,0-7.55,2.86-7.55,8.74c0,5.86,2.47,8.7,7.55,8.7c5.1,0,7.58-2.85,7.58-8.7
			C210.62,16.61,208.15,13.75,203.04,13.75 M203.01,28.4c-1.88,0-4.12-1.02-4.17-5.9v-0.01c0-4.96,2.29-6.01,4.2-6.01
			c3.39,0,4.1,3.19,4.1,5.87C207.1,27.35,204.87,28.4,203.01,28.4"/>
		<path class="st3" d="M224.45,30.79h1.67v-9.96c0.02-2.39-0.56-4.19-1.7-5.34c-1.14-1.15-2.92-1.73-5.31-1.73
			c-4.78,0-7.1,2.31-7.1,7.07v9.96h3.35V19.91c0.04-2.21,1.35-3.42,3.69-3.42c2.95,0,3.67,1.84,3.76,3.38l0,0.03v9.26
			C222.81,30.07,223.09,30.69,224.45,30.79"/>
	</g>
</g>
<g>
	<g>
		<path class="st0" d="M4.35-92.73c-5.91-6.18-5.78-15.87,0.27-21.85l0.07-0.07h0.07v-0.07c0.13-0.13,0.27-0.2,0.4-0.33v-0.07h0.07
			v-0.07h0.07l0.07-0.07c2.19-1.93,4.85-3.12,7.51-3.59v7.51c-0.53,0.2-1.13,0.46-1.66,0.8v0.07h-0.07v0.07h-0.07h-0.07v0.07h-0.07
			l-0.07,0.07c-0.33,0.2-0.6,0.47-0.86,0.66v0.07H9.93v0.07H9.87L9.8-109.4v0.07H9.73c-0.93,0.93-1.59,2.06-1.99,3.25
			c-0.86,2.66-0.33,5.71,1.59,7.9c0.07,0.07,0.13,0.13,0.13,0.2c0.07,0.07,0.13,0.07,0.2,0.13c0,0.07,0.07,0.13,0.13,0.13
			c3.12,3.12,8.24,3.19,11.42,0.07c0.27-0.2,0.53-0.47,0.73-0.73c1.66-1.99,1.73-3.65,1.73-6.11v-19.79
			c0.47-3.65,4.19-6.18,7.51-5.98v0.07l0.07,25.31c0,4.78-1.39,9.17-4.92,12.55c-2.79,2.72-6.38,4.12-9.96,4.32h-0.4
			C11.79-87.88,7.54-89.47,4.35-92.73"/>
		<path class="st4" d="M41.55-134.31c-3.12-3.32-7.44-4.91-11.62-4.78h-0.4c-3.59,0.2-7.11,1.66-9.96,4.32
			c-3.45,3.39-4.85,7.77-4.85,12.55v25.24v0.07c3.25,0.27,7.11-2.46,7.5-5.91v-19.79c0-2.46,0.13-4.12,1.73-6.11
			c0.2-0.27,0.46-0.47,0.73-0.73c3.19-3.12,8.3-3.06,11.42,0.07h0.07l0.13,0.13c0,0.07,0.07,0.07,0.13,0.13
			c0.07,0.07,0.07,0.13,0.13,0.2c1.93,2.19,2.46,5.25,1.59,7.9c-0.4,1.2-1.06,2.32-1.99,3.25v0.07H36.1l-0.07,0.07v0.07h-0.07
			l-0.07,0.07c-0.27,0.27-0.53,0.46-0.8,0.66l-0.13,0.07H34.9v0.07h-0.07v0.07h-0.07h-0.07v0.07c-0.53,0.33-1.06,0.6-1.66,0.8v7.51
			c2.72-0.46,5.32-1.66,7.51-3.59h0.07v-0.07h0.07v-0.07h0.07v-0.07c0.13-0.07,0.27-0.2,0.4-0.33l0.07-0.07l0.07-0.07
			C47.33-118.5,47.46-128.2,41.55-134.31 M37.16-111.13c3.92-2.59,6.58-7.04,6.58-12.09c0-7.9-6.44-14.35-14.35-14.35
			c-2.52,0-4.91,0.66-6.97,1.86c2.19-1.46,4.85-2.26,7.7-2.26c7.9,0,14.35,6.38,14.35,14.28C44.47-118.3,41.48-113.58,37.16-111.13"
			/>
	</g>
	<g>
		<path class="st2" d="M61.28-102.88c0,1.5-0.75,2.25-2.25,2.25h-2.28v-17.23c0.24-5.38,3.03-8.04,8.45-8.04
			c5.58,0,8.38,3.03,8.38,9.09c0,6.13-2.38,9.3-7.18,9.47c-2.25,0-3.95-0.92-5.11-2.79V-102.88z M65.13-111.39
			c2.45,0,3.71-1.74,3.81-5.21c0-3.64-1.29-5.45-3.88-5.45c-2.59,0-3.81,1.8-3.78,5.45C61.42-113.13,62.68-111.39,65.13-111.39"/>
		<path class="st2" d="M91.93-116.6c0,6.2-2.76,9.33-8.21,9.33c-5.45,0-8.17-3.13-8.17-9.33c0-6.27,2.72-9.36,8.17-9.36
			C89.17-125.97,91.93-122.87,91.93-116.6 M80.15-116.6c0.03,3.51,1.23,5.28,3.54,5.28c2.32,0,3.47-1.84,3.51-5.41
			c0-3.51-1.16-5.24-3.47-5.24C81.34-121.98,80.15-120.18,80.15-116.6"/>
		<path class="st2" d="M101.98-110.95c1.91,0,2.86-0.54,2.86-1.7c0-0.92-1.57-1.67-4.66-2.21c-3.98-0.72-6.03-2.49-6.06-5.31
			c0-3.88,3.07-5.72,7.18-5.79c2.32,0,4.15,0.51,5.52,1.53c1.33,1.06,2.04,2.52,2.14,4.39h-2.86c-1.06-0.03-1.74-0.41-2.01-1.12
			c-0.31-0.78-1.23-1.22-2.72-1.22c-1.77,0-2.66,0.48-2.66,1.4c0,0.92,1.16,1.63,3.51,2.08c3.06,0.61,5.07,1.4,6.06,2.32
			c0.85,0.88,1.26,1.97,1.26,3.2c0,4.43-3.47,6.06-8.24,6.06c-2.52,0-4.43-0.54-5.65-1.6c-1.36-1.02-2.04-2.59-2.04-4.67h4.63
			C98.33-111.63,99.76-110.95,101.98-110.95"/>
		<path class="st2" d="M119.89-121.92c-2.69,0-3.85,2.25-3.85,5.01v9.23h-4.53v-23.15h2.28c1.5,0,2.25,0.78,2.25,2.28v5.38
			c2.32-2.66,5.14-3.4,8.51-2.21c2.52,0.92,3.71,3.34,3.57,7.25v10.45h-4.49v-9.23C123.63-119.94,122.48-121.92,119.89-121.92"/>
		<path class="st5" d="M134.35-123.52c0-1.12-0.44-1.55-1.55-1.55h-1.72v19.4c0,1.15-0.64,1.82-1.75,1.82h-0.23v2.73h0.16
			c3.67,0,5.1-1.06,5.1-3.77V-123.52z"/>
		<path class="st5" d="M134.35-127.92v-0.7c0.01-0.57-0.1-0.98-0.34-1.22c-0.24-0.24-0.65-0.37-1.22-0.37h-1.72v2.29H134.35z"/>
		<path class="st5" d="M150.01-114.87v-10.2h-1.69c-0.57,0-0.97,0.12-1.21,0.37c-0.24,0.25-0.36,0.66-0.34,1.24v9.51
			c0,2.34-1.31,3.62-3.69,3.62c-2.38,0-3.69-1.29-3.69-3.62v-11.12h-3.28v10.2c0,2.8,0.67,4.59,2.06,5.46
			c1.48,0.97,3.04,1.44,4.77,1.44c1.8,0,3.48-0.44,5-1.31C149.31-110.12,150.01-112.01,150.01-114.87"/>
		<path class="st5" d="M163.63-108.31h1.67v-9.96c0.02-2.39-0.55-4.19-1.7-5.34c-1.14-1.15-2.92-1.73-5.3-1.73
			c-4.78,0-7.1,2.31-7.1,7.07v9.96h3.34v-10.88c0.04-2.21,1.35-3.42,3.69-3.42c2.95,0,3.67,1.84,3.76,3.38l0,0.03v9.26
			C161.99-109.03,162.27-108.41,163.63-108.31"/>
		<path class="st5" d="M174.1-125.34c-5.17,0.1-7.68,2.95-7.68,8.74c0.13,5.85,2.66,8.7,7.75,8.7h0.01
			c3.42,0.08,5.86-1.61,6.83-4.67h-2.59c-0.42,0-0.76,0.14-1.08,0.45c-0.86,0.97-1.96,1.49-3.18,1.49c-1.2,0.01-2.17-0.34-2.91-1.06
			c-1-0.98-1.5-2.63-1.5-4.91c0-4.97,2.29-6.01,4.2-6.01c1.49,0,2.63,0.65,3.32,1.87h3.76C180.15-123.83,177.88-125.34,174.1-125.34
			"/>
		<path class="st5" d="M188.8-110.7h-0.77c-1.22,0-1.95-0.67-1.95-1.78v-10.6h1.1c0.92,0,1.62-0.7,1.62-1.62v-0.36h-2.72v-3.49
			c0-0.87-0.74-1.66-1.55-1.66h-1.72v19.06c-0.04,2.13,0.95,2.51,1.92,2.61c1.4,0.14,2.77,0.17,4.08,0.08V-110.7z"/>
		<path class="st5" d="M190.59-125.07v16.76h3.28v-15.21c0-1.12-0.43-1.55-1.55-1.55H190.59z"/>
		<path class="st5" d="M193.87-127.92v-0.7c0.01-0.57-0.1-0.98-0.34-1.22c-0.24-0.24-0.65-0.37-1.22-0.37h-1.72v2.29H193.87z"/>
		<path class="st5" d="M203.04-125.34c-5.08,0-7.55,2.86-7.55,8.74c0,5.86,2.47,8.7,7.55,8.7c5.1,0,7.58-2.85,7.58-8.7
			C210.62-122.48,208.15-125.34,203.04-125.34 M203.01-110.7c-1.88,0-4.12-1.02-4.17-5.9v-0.01c0-4.96,2.29-6.01,4.2-6.01
			c3.39,0,4.1,3.19,4.1,5.87C207.1-111.75,204.87-110.7,203.01-110.7"/>
		<path class="st5" d="M224.45-108.31h1.67v-9.96c0.02-2.39-0.56-4.19-1.7-5.34c-1.14-1.15-2.92-1.73-5.31-1.73
			c-4.78,0-7.1,2.31-7.1,7.07v9.96h3.35v-10.88c0.04-2.21,1.35-3.42,3.69-3.42c2.95,0,3.67,1.84,3.76,3.38l0,0.03v9.26
			C222.81-109.03,223.09-108.41,224.45-108.31"/>
	</g>
</g>
</svg>
